PathFileType	4	(X/Y/Z)	s07c0001.trc
DataRate	CameraRate	NumFrames	NumMarkers	Units	OrigDataRate	OrigDataStartFrame	OrigNumFrames
200	200	6	49	mm	200	1500	2000
Frame#	Time	racr			lacr			c7			jug			rlel			rdr			llel			ldr			s2			lic			ric			lasi			rasi			rpsi			lpsi			rgt			lgt			rth1			rth2			rth3			rth4			rlfc			rmfc			rsh1			rsh2			rsh3			rsh4			rlmal			rmmal			rcal			rtoe			rmt5			rmt1			lth1			lth2			lth4			lth3			llfc			lmfc			lsh1			lsh2			lsh3			lsh4			llmal			lmmal			lcal			ltoe			lmt1			lmt5			
		X1	Y1	Z1	X2	Y2	Z2	X3	Y3	Z3	X4	Y4	Z4	X5	Y5	Z5	X6	Y6	Z6	X7	Y7	Z7	X8	Y8	Z8	X9	Y9	Z9	X10	Y10	Z10	X11	Y11	Z11	X12	Y12	Z12	X13	Y13	Z13	X14	Y14	Z14	X15	Y15	Z15	X16	Y16	Z16	X17	Y17	Z17	X18	Y18	Z18	X19	Y19	Z19	X20	Y20	Z20	X21	Y21	Z21	X22	Y22	Z22	X23	Y23	Z23	X24	Y24	Z24	X25	Y25	Z25	X26	Y26	Z26	X27	Y27	Z27	X28	Y28	Z28	X29	Y29	Z29	X30	Y30	Z30	X31	Y31	Z31	X32	Y32	Z32	X33	Y33	Z33	X34	Y34	Z34	X35	Y35	Z35	X36	Y36	Z36	X37	Y37	Z37	X38	Y38	Z38	X39	Y39	Z39	X40	Y40	Z40	X41	Y41	Z41	X42	Y42	Z42	X43	Y43	Z43	X44	Y44	Z44	X45	Y45	Z45	X46	Y46	Z46	X47	Y47	Z47	X48	Y48	Z48	X49	Y49	Z49	
1500	7.5000	181.535553	1569.895508	557.968628	208.802689	1567.843506	187.645981	147.831757	1607.430664	368.681732	270.806763	1517.478271	379.936646	249.007278	1226.225098	692.486389	399.429291	989.426086	806.241943	285.025421	1213.612549	92.097931	439.706024	975.043701	-9.244796	116.657387	1060.719360	363.091339	262.603577	1143.312988	227.295975	248.752884	1132.542480	531.498108	327.282684	1075.606812	260.651062	297.100861	1073.483032	523.866028	0.000000	0.000000	-0.000000	145.256607	1102.617310	307.920807	213.034958	976.240967	559.890503	245.931656	973.397705	209.965622	222.032333	847.412598	562.548035	245.200363	762.468018	555.215027	225.032181	679.560730	546.242676	281.533905	764.414917	547.598572	223.805634	537.940369	512.074829	233.045547	526.995544	416.502411	183.255020	400.390594	529.019165	200.066666	314.037323	509.318665	171.333954	232.671478	503.576599	223.387146	317.730957	476.888885	159.041565	91.798203	488.599762	200.946182	105.592453	410.875275	113.899406	41.209755	447.012604	395.369690	86.146904	505.293793	311.050720	36.229836	556.981689	328.151428	43.938580	449.508606	255.474594	855.844360	195.999374	278.251892	771.082947	203.512817	312.714905	771.912415	217.925964	254.682388	685.723206	211.493820	248.649536	531.083984	239.924408	242.657959	515.278198	327.841553	213.485031	396.096649	214.904129	229.786118	313.792053	236.419144	202.638077	226.736801	232.309097	239.859863	317.136810	276.537140	190.733521	91.020401	243.509842	225.054184	111.789413	324.729889	141.586121	37.516518	280.110840	423.145325	92.805176	249.200546	359.044495	47.660797	297.268402	345.645691	52.927887	192.405304	
1501	7.5050	181.551193	1569.889282	557.975098	208.839615	1567.836792	187.636551	147.903366	1607.400269	368.599731	270.837402	1517.479370	379.947845	248.984451	1226.218140	692.502686	399.455658	989.408875	806.214417	285.061462	1213.605713	92.126076	439.743622	975.039368	-9.234149	116.693031	1060.733887	363.100677	262.638153	1143.325439	227.288406	248.775101	1132.528320	531.490784	327.315216	1075.610840	260.645691	297.144958	1073.471436	523.846741	0.000000	0.000000	-0.000000	145.299210	1102.622314	307.926941	213.059204	976.231201	559.885193	245.981842	973.402283	209.979889	222.052887	847.417908	562.546204	245.210022	762.457092	555.206909	225.049103	679.532104	546.246155	281.544464	764.407288	547.579468	223.818634	537.934448	512.066040	233.072845	527.004028	416.498138	183.270599	400.391602	529.024536	200.072021	314.046051	509.328644	171.335312	232.669739	503.576324	223.409927	317.738708	476.906189	159.027374	91.792816	488.594147	200.955917	105.576805	410.885376	113.871979	41.227665	447.006348	395.366272	86.129730	505.275909	311.034607	36.243488	556.984680	328.153412	43.925777	449.525330	255.502533	855.851074	196.002426	278.264587	771.081055	203.480591	312.752289	771.917969	217.927719	254.693771	685.720581	211.499756	248.660858	531.081482	239.920471	242.594406	515.267761	327.758728	213.496368	396.095642	214.915863	229.786865	313.798706	236.429825	202.529678	226.866959	232.241730	239.887299	317.114258	276.546661	190.730209	91.014854	243.512604	225.051453	111.772354	324.723755	141.583344	37.513657	280.099152	423.120483	92.852760	249.174942	359.044495	47.660782	297.268402	345.635559	52.940136	192.413467	
1502	7.5100	181.590378	1569.888306	557.958984	208.837402	1567.843628	187.639969	147.911469	1607.433228	368.677490	270.841888	1517.467163	379.957947	249.029724	1226.199829	692.474670	399.464325	989.390320	806.194458	285.096375	1213.617432	92.104706	439.786560	975.032715	-9.225672	116.731102	1060.725586	363.085388	262.668182	1143.321777	227.285904	248.815720	1132.531372	531.493896	327.352814	1075.614624	260.663574	297.170044	1073.474487	523.857300	0.000000	0.000000	-0.000000	145.341187	1102.615479	307.914612	213.088837	976.236328	559.889771	246.008240	973.397156	209.962082	222.078506	847.424377	562.545044	245.223907	762.477173	555.199768	225.071442	679.538086	546.242065	281.558472	764.416138	547.603394	223.829636	537.939087	512.061218	233.057129	527.009827	416.486847	183.287201	400.404999	529.022278	200.093048	314.028809	509.321716	171.337891	232.678986	503.567871	223.414261	317.737061	476.892151	159.047195	91.796371	488.573975	200.949265	105.598618	410.890167	113.872704	41.197365	447.026398	395.369629	86.130058	505.266998	311.041626	36.236729	556.980164	328.181641	43.943096	449.512665	255.530823	855.861755	195.993759	278.292206	771.086548	203.488205	312.777435	771.914124	217.910889	254.716827	685.725403	211.496475	248.683716	531.099915	239.939011	242.602341	515.250366	327.765747	213.501358	396.101715	214.896896	229.805222	313.793396	236.414398	202.521851	226.862335	232.230499	239.868484	317.131836	276.524780	190.730362	91.004349	243.492401	225.049789	111.782433	324.733337	141.572037	37.520813	280.106689	423.134888	92.809700	249.211716	359.028839	47.631996	297.242371	345.640930	52.932461	192.399551	
1503	7.5150	181.615677	1569.872803	557.962097	208.861053	1567.835083	187.637054	147.940811	1607.432373	368.657257	270.882751	1517.463623	379.951111	249.048981	1226.194336	692.461792	399.490845	989.378784	806.171387	285.134399	1213.609985	92.096733	439.822876	975.021912	-9.217264	116.768356	1060.741333	363.097107	262.695618	1143.329956	227.280899	248.832932	1132.541504	531.497803	327.392792	1075.589844	260.665405	297.194550	1073.483887	523.865845	0.000000	0.000000	-0.000000	145.383957	1102.613281	307.918701	213.120880	976.229065	559.884888	246.053711	973.399353	209.962708	222.098785	847.425110	562.541687	245.249252	762.477600	555.202698	225.081879	679.541138	546.253845	281.579102	764.427002	547.614441	223.862991	537.924805	512.070923	233.091156	527.002869	416.493439	183.284744	400.405487	529.025879	200.092484	314.039398	509.317566	171.362122	232.656952	503.575470	223.439484	317.742493	476.902130	159.033752	91.791557	488.586121	200.913391	105.604027	410.853241	113.874664	41.223019	447.020691	395.369293	86.131096	505.267883	311.006500	36.219532	556.988037	328.171448	43.946327	449.503143	255.563278	855.833557	195.990173	278.303009	771.088806	203.464630	312.806427	771.927002	217.922394	254.745377	685.720642	211.503922	248.675171	531.090454	239.917267	242.613693	515.253052	327.749237	213.524490	396.104980	214.916458	229.823685	313.792542	236.427475	202.643066	226.741180	232.297836	239.884842	317.135559	276.547729	190.732086	91.021530	243.503326	225.047455	111.787987	324.725647	141.566986	37.522999	280.107788	423.122589	92.828102	249.183243	359.010040	47.618515	297.222992	345.641907	52.924599	192.403107	
1504	7.5200	181.644379	1569.878052	557.974670	208.898468	1567.832397	187.642883	147.987823	1607.424683	368.677032	270.902222	1517.450317	379.954742	249.060822	1226.194946	692.476685	399.517273	989.360229	806.155884	285.163361	1213.605103	92.115295	439.868073	975.030151	-9.209928	116.783379	1060.752808	363.092743	262.712158	1143.316772	227.285614	248.852615	1132.534912	531.496155	327.423584	1075.600220	260.656128	297.219238	1073.483887	523.862549	0.000000	0.000000	-0.000000	145.417374	1102.614990	307.908997	213.136749	976.233643	559.883301	246.102158	973.403809	209.963409	222.118652	847.424561	562.541260	245.271561	762.472717	555.209900	225.099396	679.534729	546.252991	281.604797	764.413330	547.597961	223.873810	537.937500	512.074402	233.125809	527.013916	416.479462	183.304886	400.390381	529.017334	200.092468	314.039368	509.317566	171.359131	232.656143	503.568634	223.430374	317.749603	476.903564	159.035049	91.790390	488.586456	200.936768	105.563072	410.887482	113.870956	41.214336	447.027039	395.369568	86.130051	505.266357	311.019623	36.231281	557.005310	328.163879	43.939449	449.513214	255.595520	855.843994	195.996918	278.331543	771.104126	203.464951	312.837280	771.908386	217.926743	254.767303	685.720032	211.500870	248.717468	531.092163	239.945862	242.627518	515.259155	327.768188	213.536118	396.091980	214.908829	229.823227	313.796021	236.414536	202.545013	226.861725	232.239212	239.905380	317.127380	276.550171	190.730057	91.010391	243.505478	225.042618	111.782959	324.736511	141.584381	37.524437	280.102936	423.114563	92.837898	249.175354	359.038666	47.624641	297.251770	345.642883	52.927879	192.409836	
1505	7.5250	181.666138	1569.865112	557.955994	208.932663	1567.839966	187.648727	148.021957	1607.432983	368.699402	270.910431	1517.439453	379.952209	249.083649	1226.201904	692.460388	399.557922	989.362732	806.148682	285.192291	1213.585327	92.110489	439.908325	975.014526	-9.197946	116.835434	1060.743408	363.083099	262.747070	1143.325317	227.292252	248.897766	1132.531006	531.483582	327.470001	1075.591797	260.651001	297.260071	1073.467285	523.861450	0.000000	0.000000	-0.000000	145.478500	1102.610840	307.909271	213.156555	976.228577	559.887695	246.125809	973.416565	209.962234	222.149017	847.418396	562.534546	245.292847	762.476929	555.205566	225.120590	679.540222	546.241821	281.623871	764.423462	547.590820	223.897308	537.933899	512.065063	233.108749	527.001648	416.477600	183.316055	400.403412	529.025879	200.117889	314.032928	509.304596	171.347122	232.668976	503.572784	223.439636	317.735626	476.887817	159.041733	91.798653	488.587036	200.941910	105.562889	410.880188	113.869972	41.206402	447.026154	395.371552	86.130882	505.279114	310.986267	36.208824	556.986267	328.183350	43.952236	449.494934	255.640015	855.841064	195.999207	278.359528	771.102905	203.468643	312.857941	771.907776	217.932129	254.806961	685.726135	211.495300	248.739273	531.098206	239.933228	242.626938	515.257751	327.762726	213.536362	396.142242	214.888321	229.822662	313.789703	236.411621	202.560181	226.845917	232.238647	239.901978	317.126801	276.557922	190.737122	91.002609	243.499573	225.043152	111.783234	324.731171	141.595444	37.515099	280.107727	423.151672	92.820602	249.204132	359.049194	47.651867	297.260834	345.657135	52.933029	192.410156	
